<?xml version="1.0" encoding="UTF-8" standalone="no"?>
<!-- Created with Inkscape (http://www.inkscape.org/) -->

<svg
   width="512"
   height="512"
   viewBox="0 0 135.46667 135.46667"
   version="1.1"
   id="svg5"
   inkscape:export-filename="/home/leonards/repos/aliux/src/assets/logo.png"
   inkscape:export-xdpi="96"
   inkscape:export-ydpi="96"
   inkscape:version="1.1 (c4e8f9ed74, 2021-05-24)"
   sodipodi:docname="logo.svg"
   xmlns:inkscape="http://www.inkscape.org/namespaces/inkscape"
   xmlns:sodipodi="http://sodipodi.sourceforge.net/DTD/sodipodi-0.dtd"
   xmlns="http://www.w3.org/2000/svg"
   xmlns:svg="http://www.w3.org/2000/svg">
  <sodipodi:namedview
     id="namedview7"
     pagecolor="#ffffff"
     bordercolor="#999999"
     borderopacity="1"
     inkscape:pageshadow="0"
     inkscape:pageopacity="0"
     inkscape:pagecheckerboard="0"
     inkscape:document-units="px"
     showgrid="false"
     inkscape:zoom="1.4707031"
     inkscape:cx="248.86056"
     inkscape:cy="313.11554"
     inkscape:window-width="1920"
     inkscape:window-height="1013"
     inkscape:window-x="1920"
     inkscape:window-y="39"
     inkscape:window-maximized="1"
     inkscape:current-layer="layer1" />
  <defs
     id="defs2" />
  <g
     inkscape:label="Calque 1"
     inkscape:groupmode="layer"
     id="layer1">
    <path
       d="m 44.346824,65.489982 c -7.416546,2.160059 -12.391917,8.516212 -11.891693,15.316781 2.356428,-2.629278 5.955148,-4.89889 10.31454,-6.391295 z M 21.392323,75.794186 14.833599,38.688716 c -0.05994,-0.334861 0.05788,-0.541565 0.04961,-0.547766 11.939234,-6.626937 25.44942,-10.130573 39.06916,-10.130573 0.332794,0 0.667654,0.03515 1.002515,0.03927 2.883524,-2.784306 6.558724,-4.719056 10.66387,-5.374309 3.904643,-0.624246 7.865094,-0.940504 11.819345,-1.099666 -2.064975,-2.883523 -5.060118,-5.008443 -8.634033,-5.581014 -4.942298,-0.787542 -9.9094,-1.178213 -14.853764,-1.178213 -15.845944,0 -31.48105,4.014195 -45.4997266,11.794541 -4.996041,2.77397 -7.67286095,8.561688 -6.645541,14.370075 l 6.558724,37.105471 C 11.30516,94.730356 36.543742,107.45507 50.62443,107.45507 c 0.74207,0 1.395254,-0.0951 2.069111,-0.16537 C 49.898895,103.7592 46.711516,98.922318 44.52872,93.320636 34.687537,90.637615 22.605677,82.650564 21.392323,75.794186 Z m 20.163994,-28.41356 c -0.150894,-0.851621 -0.46095,-1.626761 -0.841286,-2.356427 -1.705309,1.841735 -4.272575,3.255592 -7.300791,3.786821 -3.028218,0.533297 -5.92621,0.08268 -8.160683,-1.06866 -0.10748,0.814414 -0.13229,1.649499 0.01861,2.50112 0.793745,4.485481 5.080791,7.480626 9.578674,6.691014 4.495816,-0.789608 7.499227,-5.068385 6.705483,-9.553868 z M 127.0161,39.806985 C 108.62356,29.599931 87.446711,25.873056 66.662609,29.192726 61.017517,30.093955 56.517567,34.620778 55.492314,40.429166 l -6.558723,37.105469 c -3.181179,17.993601 19.694776,40.569825 32.72334,42.860115 13.02857,2.29235 42.264809,-11.11861 45.445979,-29.112217 l 6.55873,-37.105472 c 1.02732,-5.810455 -1.6495,-11.598172 -6.64554,-14.370076 z M 70.536246,59.815951 c 0.793743,-4.48548 5.080789,-7.480624 9.578672,-6.688947 4.497883,0.791676 7.499233,5.068387 6.707553,9.553868 -0.150896,0.851622 -0.460953,1.626762 -0.841287,2.356427 -1.70531,-1.841734 -4.272577,-3.25559 -7.300793,-3.786821 -3.028216,-0.533296 -5.92621,-0.08268 -8.160681,1.068662 -0.109556,-0.816483 -0.134359,-1.651568 0.01654,-2.503189 z M 85.10269,100.90048 C 73.5934,98.876838 65.771714,88.649123 66.697749,77.563574 c 4.258106,5.279225 11.618843,9.543529 20.565002,11.116549 8.94616,1.573019 17.325939,0.07648 23.136409,-3.431288 -2.93108,10.736211 -13.789249,17.675275 -25.29647,15.651645 z m 26.93356,-31.282616 c -1.70531,-1.841734 -4.27465,-3.25559 -7.30286,-3.786821 -3.02822,-0.533296 -5.926209,-0.08268 -8.160689,1.068662 -0.10748,-0.814415 -0.13229,-1.6495 0.0186,-2.501121 0.79374,-4.485482 5.080779,-7.480625 9.578669,-6.691015 4.49582,0.791676 7.49922,5.068387 6.70755,9.553868 -0.15089,0.853687 -0.46095,1.62883 -0.84128,2.356427 z"
       fill="#626262"
       id="path1152"
       style="fill:#000000;stroke-width:0.206704;-ms-transform:rotate(360deg);-webkit-transform:rotate(360deg)" />
  </g>
</svg>
